# xmcd
#
# Track frame offsets:
#	150
#	15726
#	40194
#	58319
#	80288
#	104872
#	128891
#	145754
#	169246
#
# Disc length: 2477
#
# Revision: 1
# Processed by: cddbd v1.5.1PL0 Copyright (c) Steve Scherf et al.
# Submitted via: CDex 1.50beta10
# Normalized: r0:TDELIM( - )
#
DISCID=7d09ab09
DTITLE=Variuos - Live your life with Verve
DYEAR=1900
DGENRE=Jazz
TTITLE0=Lizz Wright - Salt
TTITLE1=The Crusaders - Rural Renewal
TTITLE2=Mindi Abair - Lucy's
TTITLE3=Regina Carter - Pavane pour une infante défunte
TTITLE4=Wayne Shorter - Angola
TTITLE5=Richard Elliot - Corner Pocket
TTITLE6=David Sanborn - Commin' Home Baby
TTITLE7=Shirley Horn - Take Love Easy
TTITLE8=Aaron Neville - Summertime
EXTD=
EXTT0=
EXTT1=
EXTT2=
EXTT3=
EXTT4=
EXTT5=
EXTT6=
EXTT7=
EXTT8=
PLAYORDER=
